<?xml version="1.0" encoding="utf-8"?>
<!-- Generator: Adobe Illustrator 24.1.3, SVG Export Plug-In . SVG Version: 6.00 Build 0)  -->
<svg version="1.1" id="Layer_1" xmlns="http://www.w3.org/2000/svg" xmlns:xlink="http://www.w3.org/1999/xlink" x="0px" y="0px"
	 viewBox="0 0 340 220" style="enable-background:new 0 0 340 220;" xml:space="preserve">
<style type="text/css">
	.st0{fill:#222222;}
	.st1{fill:#FEF7ED;}
</style>
<g>
	<rect class="st0" width="340" height="220"/>
</g>
<g>
	<path class="st1" d="M38.2,143l44.2-60.6H38.3V64.5h72V77L66,137.6h44.2v17.9h-72V143z"/>
	<path class="st1" d="M119.7,155.5l30.7-91h29.3l30.7,91h-23.6l-6-19.1h-31.4l-6,19.1H119.7z M175.5,119.7l-10.1-32.2h-0.7
		l-10.1,32.2H175.5z"/>
	<path class="st1" d="M258.3,156.7c-24.5,0-43.4-16.8-43.4-46.7c0-30.1,18.9-46.7,43.4-46.7c24.4,0,43.4,16.7,43.4,46.7
		S282.8,156.7,258.3,156.7z M258.3,82.5c-13.1,0-21,9.6-21,27.5s7.9,27.5,21,27.5c13.1,0,21-9.6,21-27.5S271.5,82.5,258.3,82.5z"/>
</g>
</svg>
