<?xml version="1.0" encoding="utf-8"?>
<!-- Generator: Adobe Illustrator 24.1.3, SVG Export Plug-In . SVG Version: 6.00 Build 0)  -->
<svg version="1.1" id="Layer_1" xmlns="http://www.w3.org/2000/svg" xmlns:xlink="http://www.w3.org/1999/xlink" x="0px" y="0px"
	 viewBox="0 0 320 168" style="enable-background:new 0 0 320 168;" xml:space="preserve">
<style type="text/css">
	.st0{fill:#222222;}
	.st1{fill:#FEF7ED;}
</style>
<g>
	<rect class="st0" width="320" height="168"/>
</g>
<g>
	<path class="st1" d="M28.2,117l44.2-60.6H28.3V38.5h72V51L56,111.6h44.2v17.9h-72V117z"/>
	<path class="st1" d="M109.7,129.5l30.7-91h29.3l30.7,91h-23.6l-6-19.1h-31.4l-6,19.1H109.7z M165.5,93.7l-10.1-32.2h-0.7
		l-10.1,32.2H165.5z"/>
	<path class="st1" d="M248.3,130.7c-24.5,0-43.4-16.8-43.4-46.7c0-30.1,18.9-46.7,43.4-46.7c24.4,0,43.4,16.7,43.4,46.7
		S272.8,130.7,248.3,130.7z M248.3,56.5c-13.1,0-21,9.6-21,27.5s7.9,27.5,21,27.5c13.1,0,21-9.6,21-27.5S261.5,56.5,248.3,56.5z"/>
</g>
</svg>
