<svg width="32" height="32" viewBox="0 0 32 32" fill="none" xmlns="http://www.w3.org/2000/svg">
<path d="M27.2 0.666667C29.4667 0.666667 31.3333 2.53333 31.3333 4.8V27.2C31.3333 29.4667 29.4667 31.3333 27.2 31.3333H4.8C2.53333 31.3333 0.666667 29.4667 0.666667 27.2V4.8C0.666667 2.53333 2.53333 0.666667 4.8 0.666667H27.2ZM27.2 0H4.8C2.13333 0 0 2.13333 0 4.8C0 12.2667 0 19.7333 0 27.2C0 29.8667 2.13333 32 4.8 32H27.2C29.8667 32 32 29.8667 32 27.2V4.8C32 2.13333 29.8667 0 27.2 0Z" fill="#FEF7ED"/>
<path d="M14.6666 15.5998C14.7999 15.7332 15.0666 15.7332 15.1999 15.8665C15.7332 16.2665 16.1332 16.7998 16.1332 17.3332C16.2666 18.3998 16.1332 19.3332 15.3332 20.1332C14.9332 20.5332 14.3999 20.7998 13.7332 20.9332C13.1999 21.0665 12.7999 21.0665 12.2666 21.0665C10.7999 21.0665 9.33325 21.0665 7.86658 21.0665C7.73325 21.0665 7.59991 21.0665 7.59991 20.7998C7.59991 17.4665 7.59991 14.1332 7.59991 10.9332C7.59991 10.7998 7.59991 10.6665 7.86658 10.6665C9.46658 10.6665 10.9332 10.6665 12.5332 10.6665C13.1999 10.6665 13.7332 10.6665 14.2666 10.9332C15.3332 11.4665 15.7332 12.2665 15.7332 13.3332C15.7332 13.9998 15.4666 14.6665 14.9332 15.0665C14.9332 15.4665 14.7999 15.4665 14.6666 15.5998ZM10.1332 17.9998C10.1332 18.3998 10.1332 18.7998 10.1332 19.1998C10.1332 19.3332 10.1332 19.3332 10.2666 19.3332C11.0666 19.3332 11.9999 19.3332 12.7999 19.3332C13.4666 19.3332 13.9999 18.9332 13.9999 18.1332C13.9999 17.5998 13.9999 17.1998 13.4666 16.7998C13.1999 16.6665 12.7999 16.5332 12.5332 16.5332C11.7332 16.5332 11.0666 16.5332 10.2666 16.5332C10.1332 16.5332 10.1332 16.5332 10.1332 16.6665C10.1332 17.1998 10.1332 17.5998 10.1332 17.9998ZM10.1332 14.9332C10.2666 14.9332 10.2666 14.9332 10.2666 14.9332C10.9332 14.9332 11.5999 14.9332 12.2666 14.9332C12.5332 14.9332 12.6666 14.9332 12.9332 14.9332C13.5999 14.7998 13.9999 14.3998 13.8666 13.5998C13.8666 13.0665 13.5999 12.9332 13.1999 12.7998C13.0666 12.7998 12.9332 12.6665 12.6666 12.6665C11.8666 12.6665 11.0666 12.6665 10.2666 12.6665C10.2666 12.6665 10.2666 12.6665 10.1332 12.6665C10.1332 13.3332 10.1332 14.1332 10.1332 14.9332Z" fill="#FEF7ED"/>
<path d="M18.9332 17.7331C18.9332 18.6665 19.3332 19.3331 20.1332 19.4665C20.6666 19.5998 21.1999 19.5998 21.7332 19.3331C21.8666 19.1998 21.9999 19.0665 22.1332 18.9331L22.2666 18.7998C22.9332 18.7998 23.4666 18.7998 24.1332 18.7998C24.1332 19.0665 23.9999 19.3331 23.8666 19.4665C23.3332 20.2665 22.5332 20.9331 21.5999 21.0665C20.2666 21.3331 19.0666 21.0665 18.1332 20.2665C17.5999 19.8665 17.3332 19.3331 17.1999 18.7998C16.9332 17.7331 16.9332 16.5331 17.3332 15.4665C17.7332 14.2665 18.6666 13.5998 19.9999 13.3331C20.7999 13.1998 21.4666 13.3331 22.1332 13.4665C22.9332 13.7331 23.5999 14.2665 23.8666 15.0665C24.1332 15.5998 24.2666 16.2665 24.2666 16.9331C24.2666 17.1998 24.2666 17.3331 24.2666 17.5998C24.2666 17.7331 24.2666 17.7331 24.1332 17.7331C23.8666 17.7331 23.5999 17.7331 23.3332 17.7331C21.9999 17.7331 20.5332 17.7331 19.1999 17.7331C19.0666 17.7331 19.0666 17.7331 18.9332 17.7331ZM22.2666 16.3998C22.2666 15.8665 21.9999 15.3331 21.4666 15.0665C20.7999 14.7998 20.2666 14.6665 19.5999 15.0665C19.0666 15.3331 18.9332 15.8665 18.7999 16.3998C20.1332 16.3998 21.1999 16.3998 22.2666 16.3998Z" fill="#FEF7ED"/>
<path d="M18.5333 12.2665C18.5333 11.8665 18.5333 11.5998 18.5333 11.1998C19.8667 11.1998 21.3333 11.1998 22.6667 11.1998C22.6667 11.5998 22.6667 11.8665 22.6667 12.2665C21.3333 12.2665 20 12.2665 18.5333 12.2665Z" fill="#FEF7ED"/>
</svg>
