<svg width="32" height="32" viewBox="0 0 32 32" fill="none" xmlns="http://www.w3.org/2000/svg">
<g clip-path="url(#clip0_28_540)">
<path d="M27.2 0.666667C29.4667 0.666667 31.3333 2.53333 31.3333 4.8V27.2C31.3333 29.4667 29.4667 31.3333 27.2 31.3333H4.8C2.53333 31.3333 0.666667 29.4667 0.666667 27.2V4.8C0.666667 2.53333 2.53333 0.666667 4.8 0.666667H27.2ZM27.2 0H4.8C2.13333 0 0 2.13333 0 4.8C0 12.2667 0 19.7333 0 27.2C0 29.8667 2.13333 32 4.8 32H27.2C29.8667 32 32 29.8667 32 27.2V4.8C32 2.13333 29.8667 0 27.2 0Z" fill="#FEF7ED"/>
<path d="M16 9.33325C18.4 9.33325 20.8 9.33325 23.3333 9.33325C24.5333 9.33325 25.2 9.99992 25.2 11.1999C25.2 14.3999 25.2 17.5999 25.2 20.7999C25.2 21.9999 24.5333 22.6666 23.3333 22.6666C18.5333 22.6666 13.6 22.6666 8.79998 22.6666C7.59998 22.6666 6.93331 21.9999 6.93331 20.7999C6.93331 17.5999 6.93331 14.3999 6.93331 11.3333C6.79998 9.99992 7.59998 9.33325 8.79998 9.33325C11.2 9.33325 13.6 9.33325 16 9.33325ZM8.13331 10.1333C10.6666 12.6666 13.0666 15.0666 15.4666 17.5999C15.7333 17.8666 16.1333 17.8666 16.5333 17.5999C18.9333 15.1999 21.3333 12.7999 23.7333 10.3999L23.8666 10.2666C23.4666 9.99992 8.53331 9.99992 8.13331 10.1333ZM8.13331 21.8666C8.39998 21.8666 8.53331 21.9999 8.66664 21.9999C13.6 21.9999 18.4 21.9999 23.3333 21.9999C23.4666 21.9999 23.7333 21.9999 23.8666 21.8666C22 19.9999 20.2666 18.2666 18.4 16.3999C18 16.9333 17.4666 17.3333 16.9333 17.8666C16.2666 18.5333 15.4666 18.5333 14.8 17.8666C14.2666 17.3333 13.8666 16.9333 13.3333 16.3999C11.7333 18.2666 9.99998 20.1333 8.13331 21.8666ZM7.59998 10.6666C7.59998 10.7999 7.46664 11.0666 7.46664 11.1999C7.46664 14.3999 7.46664 17.5999 7.46664 20.7999C7.46664 20.9333 7.46664 21.1999 7.59998 21.3333C9.46664 19.4666 11.2 17.7333 12.9333 15.9999C11.2 14.2666 9.33331 12.3999 7.59998 10.6666ZM24.4 10.6666C22.5333 12.5333 20.8 14.2666 19.0666 15.9999C20.8 17.7333 22.6666 19.5999 24.4 21.3333C24.4 21.1999 24.5333 20.9333 24.5333 20.7999C24.5333 17.5999 24.5333 14.3999 24.5333 11.1999C24.5333 11.0666 24.4 10.7999 24.4 10.6666Z" fill="#FEF7ED"/>
</g>
<defs>
<clipPath id="clip0_28_540">
<rect width="32" height="32" fill="white"/>
</clipPath>
</defs>
</svg>
