<svg width="32" height="32" viewBox="0 0 32 32" fill="none" xmlns="http://www.w3.org/2000/svg">
<path d="M27.2 0.666667C29.4667 0.666667 31.3333 2.53333 31.3333 4.8V27.2C31.3333 29.4667 29.4667 31.3333 27.2 31.3333H4.8C2.53333 31.3333 0.666667 29.4667 0.666667 27.2V4.8C0.666667 2.53333 2.53333 0.666667 4.8 0.666667H27.2ZM27.2 0H4.8C2.13333 0 0 2.13333 0 4.8C0 12.2667 0 19.7333 0 27.2C0 29.8667 2.13333 32 4.8 32H27.2C29.8667 32 32 29.8667 32 27.2V4.8C32 2.13333 29.8667 0 27.2 0Z" fill="#FEF7ED"/>
<path d="M17.4667 18.2668C17.8667 18.1335 18.2667 18.1335 18.6667 18.0001C19.8667 17.6001 20.6667 16.8001 20.8001 15.4668C20.9334 14.8001 20.9334 14.1335 20.8001 13.6001C20.6667 13.2001 20.5334 12.9335 20.2667 12.6668C20.1334 12.5335 20.1334 12.5335 20.2667 12.4001C20.4001 11.8668 20.4001 11.2001 20.1334 10.6668L20.0001 10.5335C19.7334 10.5335 19.4667 10.5335 19.2001 10.6668C18.6667 10.6668 18.4001 10.9335 18.0001 11.0668C17.8667 11.0668 17.8668 11.0668 17.7334 11.0668C16.5334 10.8001 15.3334 10.8001 14.2667 11.0668C14.1334 11.0668 14.0001 11.0668 14.0001 11.0668C13.4667 10.8001 12.9334 10.4001 12.4001 10.4001C12.1334 10.4001 12.0001 10.4001 12.0001 10.6668C11.8667 11.2001 11.8667 11.7335 12.0001 12.2668V12.4001C11.3334 13.2001 11.2001 14.1335 11.3334 15.2001C11.4667 15.8668 11.6001 16.4001 12.0001 16.9335C12.5334 17.6001 13.2001 17.8668 14.0001 18.0001C14.2667 18.0001 14.4001 18.1335 14.6667 18.1335C14.4001 18.4001 14.2667 18.6668 14.2667 19.0668L14.1334 19.2001C13.3334 19.6001 12.5334 19.3335 12.0001 18.5335C11.7334 18.1335 11.4667 17.8668 10.9334 17.7335C10.8001 17.7335 10.8001 17.7335 10.6667 17.7335C10.5334 17.7335 10.4001 17.8668 10.5334 18.0001L10.6667 18.1335C11.0667 18.4001 11.3334 18.6668 11.4667 19.0668C11.7334 20.0001 12.6667 20.2668 13.6001 20.2668C13.7334 20.2668 14.0001 20.2668 14.1334 20.1335C14.1334 20.6668 14.1334 21.0668 14.1334 21.6001C14.1334 21.8668 13.8667 22.0001 13.6001 21.8668C12.9334 21.6001 12.2668 21.3335 11.7334 20.9335C9.46675 19.3335 8.40009 17.0668 8.40009 14.2668C8.53342 10.9335 11.2001 8.00012 14.6667 7.33346C18.8001 6.53346 22.6667 9.33346 23.4667 13.4668C24.1334 17.2001 22.1334 20.9335 18.5334 22.1335C18.1334 22.2668 17.8667 22.1335 17.8667 21.7335C17.8667 21.0668 17.8667 20.5335 17.8667 19.8668C17.8667 19.2001 17.8667 18.6668 17.4667 18.2668Z" fill="#FEF7ED"/>
</svg>
