<svg width="32" height="32" viewBox="0 0 32 32" fill="none" xmlns="http://www.w3.org/2000/svg">
<path d="M27.2 0.666667C29.4667 0.666667 31.3333 2.53333 31.3333 4.8V27.2C31.3333 29.4667 29.4667 31.3333 27.2 31.3333H4.8C2.53333 31.3333 0.666667 29.4667 0.666667 27.2V4.8C0.666667 2.53333 2.53333 0.666667 4.8 0.666667H27.2ZM27.2 0H4.8C2.13333 0 0 2.13333 0 4.8C0 12.2667 0 19.7333 0 27.2C0 29.8667 2.13333 32 4.8 32H27.2C29.8667 32 32 29.8667 32 27.2V4.8C32 2.13333 29.8667 0 27.2 0Z" fill="#FEF7ED"/>
<path d="M16.9334 12.2669C16.9334 12.1335 17.0667 12.0002 17.2 12.0002C17.8667 11.3335 18.5334 10.8002 19.4667 10.6669C20.2667 10.5335 20.9334 10.6669 21.6 10.9335C22.5334 11.3335 23.0667 12.0002 23.4667 12.8002C23.6 13.2002 23.7334 13.7335 23.7334 14.1335C23.7334 14.5335 23.7334 14.8002 23.7334 15.2002C23.7334 17.2002 23.7334 19.2002 23.7334 21.2002C23.7334 21.3335 23.7334 21.3335 23.6 21.3335C22.6667 21.3335 21.6 21.3335 20.6667 21.3335C20.5334 21.3335 20.5334 21.3335 20.5334 21.2002C20.5334 19.3335 20.5334 17.6002 20.5334 15.7335C20.5334 15.3335 20.5334 14.9335 20.4 14.5335C20.1334 14.0002 19.7334 13.6002 19.0667 13.4669C18.5334 13.4669 18 13.4669 17.6 13.8669C17.2 14.1335 17.0667 14.5335 16.9334 14.9335C16.9334 15.2002 16.8 15.4669 16.8 15.7335C16.8 17.4669 16.8 19.2002 16.8 21.0669C16.8 21.2002 16.8 21.2002 16.6667 21.2002C15.7334 21.2002 14.8 21.2002 13.8667 21.2002C13.7334 21.2002 13.7334 21.2002 13.7334 21.0669C13.7334 17.7335 13.7334 14.2669 13.7334 10.9335C13.7334 10.8002 13.7334 10.8002 13.8667 10.8002C14.8 10.8002 15.7334 10.8002 16.6667 10.8002C16.8 10.8002 16.8 10.8002 16.8 10.9335C16.9334 11.4669 16.9334 11.8669 16.9334 12.2669Z" fill="#FEF7ED"/>
<path d="M11.7333 16.1334C11.7333 17.8667 11.7333 19.4667 11.7333 21.2001C11.7333 21.3334 11.7333 21.3334 11.6 21.3334C10.6667 21.3334 9.59999 21.3334 8.66666 21.3334C8.53332 21.3334 8.53333 21.3334 8.53333 21.2001C8.53333 17.8667 8.53333 14.4001 8.53333 11.0667C8.53333 10.9334 8.53332 10.9334 8.66666 10.9334C9.59999 10.9334 10.6667 10.9334 11.6 10.9334C11.7333 10.9334 11.7333 10.9334 11.7333 11.0667C11.7333 12.8001 11.7333 14.4001 11.7333 16.1334Z" fill="#FEF7ED"/>
<path d="M10.1333 9.59989C9.19999 9.59989 8.26666 8.79989 8.26666 7.73323C8.26666 6.66656 9.06666 5.86656 10.1333 5.86656C11.2 5.73323 12 6.66656 12 7.73323C12 8.79989 11.0667 9.59989 10.1333 9.59989Z" fill="#FEF7ED"/>
</svg>
