<svg width="32" height="32" viewBox="0 0 32 32" fill="none" xmlns="http://www.w3.org/2000/svg">
<g clip-path="url(#clip0_28_556)">
<path d="M27.2 0.666667C29.4667 0.666667 31.3333 2.53333 31.3333 4.8V27.2C31.3333 29.4667 29.4667 31.3333 27.2 31.3333H4.8C2.53333 31.3333 0.666667 29.4667 0.666667 27.2V4.8C0.666667 2.53333 2.53333 0.666667 4.8 0.666667H27.2ZM27.2 0H4.8C2.13333 0 0 2.13333 0 4.8C0 12.2667 0 19.7333 0 27.2C0 29.8667 2.13333 32 4.8 32H27.2C29.8667 32 32 29.8667 32 27.2V4.8C32 2.13333 29.8667 0 27.2 0Z" fill="#FEF7ED"/>
<path d="M15.2 11.7332C15.2 12.1332 15.0667 12.3999 14.9333 12.5332C14.6667 12.7999 14.4 13.1999 14.1333 13.4666V13.5999C14.4 14.2666 14.8 14.9332 15.2 15.5999C15.7333 16.3999 16.2667 17.1999 16.9333 17.8665C17.0667 17.9999 17.0667 17.9999 17.2 18.1332C17.2 18.1332 17.3333 18.2666 17.3333 18.1332C17.7333 17.9999 18.1333 17.8666 18.5333 17.7332C19.0667 17.5999 19.4667 17.7332 19.7333 17.9999C20.1333 18.3999 20.5333 18.6666 20.9333 19.0666C21.3333 19.4666 21.7333 19.8665 22.1333 20.2666C22.6667 20.6665 22.6667 21.4665 22.2667 21.8665C21.7333 22.5332 21.0667 23.1999 20.2667 23.5999C20 23.8666 19.7333 23.9999 19.6 23.9999C19.3333 23.9999 19.0667 23.9999 18.9333 23.8665C17.7333 23.1999 16.6667 22.5332 15.7333 21.7332C14.6667 20.7999 13.6 19.7332 12.8 18.5332C11.7333 17.0666 10.9333 15.4666 10.4 13.7332C10 12.9332 9.86667 12.1332 9.60001 11.3332C9.46667 10.9332 9.46667 10.3999 9.46667 9.99988C9.46667 9.59988 9.60001 9.33322 9.86667 9.06655C10.5333 8.39988 11.3333 7.99988 12.2667 7.73322C12.4 7.73322 12.5333 7.59988 12.6667 7.59988C13.2 7.46655 13.7333 7.86655 13.8667 8.26655C14.2667 9.33322 14.6667 10.3999 15.0667 11.4666C15.2 11.4666 15.2 11.5999 15.2 11.7332ZM21.7333 21.1999C21.7333 21.0665 21.7333 21.0666 21.6 20.9332L21.4667 20.7999C20.6667 20.1332 20 19.4665 19.2 18.6666C19.0667 18.5332 18.9333 18.5332 18.8 18.5332C18.2667 18.6665 17.7333 18.7999 17.2 18.9332C17.0667 18.9332 16.9333 18.9332 16.8 18.7999C16.4 18.3999 16 17.9999 15.6 17.5999C14.9333 16.9332 14.5333 16.1332 14 15.1999C13.7333 14.6666 13.4667 14.1332 13.2 13.5999C13.0667 13.4666 13.2 13.3332 13.2 13.0666C13.4667 12.6666 13.8667 12.2666 14.1333 11.8665C14.2667 11.7332 14.2667 11.5999 14.2667 11.4666C13.8667 10.3999 13.4667 9.46655 13.2 8.39988C13.2 8.39988 12.9333 8.26655 12.6667 8.39988C11.8667 8.53322 11.0667 8.93322 10.4 9.59988C10.4 9.59988 10.2667 9.73322 10.2667 9.86655C10.2667 10.1332 10.2667 10.2666 10.2667 10.5332C10.2667 11.0666 10.4 11.5999 10.5333 12.2666C10.8 13.5999 11.3333 14.9332 12 16.1332C12.8 17.5999 13.7333 18.9332 14.8 19.9999C15.4667 20.7999 16.2667 21.4665 17.0667 21.9999C17.7333 22.3999 18.4 22.7999 19.0667 23.1999C19.2 23.3332 19.3333 23.3332 19.4667 23.1999C20.2667 22.7999 20.8 22.2666 21.3333 21.5999C21.6 21.4666 21.7333 21.3332 21.7333 21.1999Z" fill="#FEF7ED"/>
</g>
<defs>
<clipPath id="clip0_28_556">
<rect width="32" height="32" fill="white"/>
</clipPath>
</defs>
</svg>
