<svg width="32" height="32" viewBox="0 0 32 32" fill="none" xmlns="http://www.w3.org/2000/svg">
<g clip-path="url(#clip0_28_573)">
<path d="M27.2 0.666667C29.4667 0.666667 31.3333 2.53333 31.3333 4.8V27.2C31.3333 29.4667 29.4667 31.3333 27.2 31.3333H4.8C2.53333 31.3333 0.666667 29.4667 0.666667 27.2V4.8C0.666667 2.53333 2.53333 0.666667 4.8 0.666667H27.2ZM27.2 0H4.8C2.13333 0 0 2.13333 0 4.8C0 12.2667 0 19.7333 0 27.2C0 29.8667 2.13333 32 4.8 32H27.2C29.8667 32 32 29.8667 32 27.2V4.8C32 2.13333 29.8667 0 27.2 0Z" fill="#FEF7ED"/>
<path d="M12 8.8C12.4 8.8 12.9334 8.8 13.3334 8.8C13.3334 8.66667 13.3334 8.66667 13.3334 8.53333C13.3334 8.26667 13.6 8 13.8667 8C14.1334 8 14.4 8.26667 14.4 8.53333C14.4 8.8 14.4 8.8 14.6667 8.8C15.0667 8.8 15.3334 8.8 15.7334 8.8C15.8667 8.8 15.8667 8.8 15.8667 8.66667V8.53333C15.8667 8.26667 16 8 16.2667 8C16.5334 8 16.8 8.26667 16.8 8.53333C16.8 8.66667 16.8 8.66667 16.8 8.8H16.9334C17.3334 8.8 17.7334 8.8 18.1334 8.8C18.2667 8.8 18.2667 8.8 18.2667 8.66667V8.53333C18.2667 8.26667 18.4 8 18.6667 8C18.9334 8 19.2 8.26667 19.2 8.53333C19.2 8.66667 19.2 8.66667 19.2 8.8C19.7334 8.8 20.1334 8.8 20.6667 8.8C20.6667 8.66667 20.6667 8.66667 20.6667 8.53333C20.6667 8.26667 20.9334 8 21.2 8C21.4667 8 21.7334 8.26667 21.7334 8.53333C21.7334 8.8 21.8667 8.93333 22.1334 9.06667C23.2 9.46667 23.7334 10.4 23.8667 11.4667C23.8667 11.6 23.8667 11.6 23.8667 11.7333C23.8667 14.9333 23.8667 18 23.8667 21.2C23.8667 22.5333 23.0667 23.6 21.8667 23.8667C21.3334 24 21.0667 24 20.8 24C17.6 24 14.4 24 11.2 24C9.73336 24 8.66669 23.0667 8.40002 21.7333C8.40002 21.6 8.40002 21.3333 8.40002 21.2C8.40002 18.4 8.40002 15.6 8.40002 12.8C8.40002 12.4 8.40002 12 8.40002 11.6C8.40002 10.1333 9.46669 8.93333 10.9334 8.8C11.0667 8.8 11.0667 8.8 11.0667 8.66667C11.0667 8.53333 11.0667 8.53333 11.0667 8.4C11.0667 8.13333 11.3334 8 11.4667 8C11.7334 8 12 8.13333 12 8.4C12 8.53333 12 8.66667 12 8.8ZM9.33336 12.9333V13.0667C9.33336 15.7333 9.33336 18.4 9.33336 21.0667C9.33336 22.1333 10.1334 22.9333 11.2 22.9333C14.4 22.9333 17.6 22.9333 20.8 22.9333C21.8667 22.9333 22.5334 22.1333 22.5334 21.2C22.5334 18.5333 22.5334 15.7333 22.5334 13.0667V12.9333C18.1334 12.9333 13.7334 12.9333 9.33336 12.9333ZM9.33336 12C13.7334 12 18.1334 12 22.5334 12C22.6667 11.2 22.1334 10.1333 21.4667 10C21.4667 10 21.4667 10 21.4667 10.1333C21.4667 10.4 21.2 10.6667 20.9334 10.6667C20.6667 10.6667 20.4 10.4 20.4 10.1333C20.4 10 20.4 10 20.4 9.86667C19.8667 9.86667 19.4667 9.86667 18.9334 9.86667C18.9334 10 18.9334 10 18.9334 10.1333C18.9334 10.4 18.6667 10.6667 18.4 10.6667C18.1334 10.6667 17.8667 10.4 17.8667 10.1333C17.8667 10 17.8667 10 17.8667 9.86667C17.3334 9.86667 16.9334 9.86667 16.4 9.86667C16.4 10 16.4 10 16.4 10.1333C16.4 10.4 16.1334 10.6667 15.8667 10.6667C15.6 10.6667 15.3334 10.4 15.3334 10.1333C15.3334 10 15.3334 10 15.3334 9.86667H15.2C14.8 9.86667 14.5334 9.86667 14.1334 9.86667C13.8667 9.86667 13.8667 9.86667 13.8667 10.1333C13.8667 10.4 13.6 10.6667 13.3334 10.6667C13.0667 10.6667 12.8 10.4 12.8 10.1333C12.8 10 12.8 10 12.8 9.86667C12.2667 9.86667 11.8667 9.86667 11.3334 9.86667C11.3334 10 11.3334 10 11.3334 10.1333C11.3334 10.4 11.0667 10.6667 10.8 10.6667C10.5334 10.6667 10.2667 10.4 10.2667 10.1333C10.2667 10 10.2667 10 10.2667 9.86667C10.1334 9.86667 10 9.86667 10 9.86667C9.86669 10 9.20002 10.8 9.33336 12Z" fill="#FEF7ED"/>
<path d="M12.1334 16.0001C12.1334 15.6001 12.1334 15.0667 12.1334 14.6667C12.5334 14.6667 13.0667 14.6667 13.4667 14.6667C13.4667 15.0667 13.4667 15.6001 13.4667 16.0001C13.0667 16.0001 12.5334 16.0001 12.1334 16.0001Z" fill="#FEF7ED"/>
<path d="M12.1334 18.7999C12.1334 18.3999 12.1334 17.8666 12.1334 17.4666C12.5334 17.4666 13.0667 17.4666 13.4667 17.4666C13.4667 17.8666 13.4667 18.3999 13.4667 18.7999C13.0667 18.7999 12.5334 18.7999 12.1334 18.7999Z" fill="#FEF7ED"/>
<path d="M18.5334 18.7999C18.5334 18.3999 18.5334 17.8666 18.5334 17.4666C18.9334 17.4666 19.4667 17.4666 19.8667 17.4666C19.8667 17.8666 19.8667 18.3999 19.8667 18.7999C19.4667 18.7999 18.9334 18.7999 18.5334 18.7999Z" fill="#FEF7ED"/>
<path d="M18.5334 16.0001C18.5334 15.6001 18.5334 15.0667 18.5334 14.6667C18.9334 14.6667 19.4667 14.6667 19.8667 14.6667C19.8667 15.0667 19.8667 15.6001 19.8667 16.0001C19.4667 16.0001 18.9334 16.0001 18.5334 16.0001Z" fill="#FEF7ED"/>
<path d="M16.6667 14.6667C16.6667 15.0667 16.6667 15.6001 16.6667 16.0001C16.2667 16.0001 15.7334 16.0001 15.3334 16.0001C15.3334 15.6001 15.3334 15.0667 15.3334 14.6667C15.7334 14.6667 16.2667 14.6667 16.6667 14.6667Z" fill="#FEF7ED"/>
<path d="M15.3334 17.4666C15.7334 17.4666 16.2667 17.4666 16.6667 17.4666C16.6667 17.8666 16.6667 18.3999 16.6667 18.7999C16.2667 18.7999 15.7334 18.7999 15.3334 18.7999C15.3334 18.3999 15.3334 17.8666 15.3334 17.4666Z" fill="#FEF7ED"/>
<path d="M12.1334 21.5999C12.1334 21.1999 12.1334 20.6666 12.1334 20.2666C12.5334 20.2666 13.0667 20.2666 13.4667 20.2666C13.4667 20.3999 13.4667 20.3999 13.4667 20.5333C13.4667 20.9333 13.4667 21.1999 13.4667 21.5999C13.4667 21.5999 13.4667 21.7333 13.3334 21.7333C12.9334 21.5999 12.5334 21.5999 12.1334 21.5999Z" fill="#FEF7ED"/>
<path d="M18.5334 21.5999C18.5334 21.1999 18.5334 20.6666 18.5334 20.2666C18.9334 20.2666 19.4667 20.2666 19.8667 20.2666C19.8667 20.6666 19.8667 21.1999 19.8667 21.5999C19.4667 21.5999 18.9334 21.5999 18.5334 21.5999Z" fill="#FEF7ED"/>
<path d="M16.6667 21.5999C16.2667 21.5999 15.7334 21.5999 15.3334 21.5999C15.3334 21.1999 15.3334 20.6666 15.3334 20.2666C15.7334 20.2666 16.2667 20.2666 16.6667 20.2666C16.6667 20.6666 16.6667 21.1999 16.6667 21.5999Z" fill="#FEF7ED"/>
</g>
<defs>
<clipPath id="clip0_28_573">
<rect width="32" height="32" fill="white"/>
</clipPath>
</defs>
</svg>
